<mxfile host="65bd71144e">
    <diagram id="wF4pELGOG9Z6pAIZ0gWR" name="Page-1">
        <mxGraphModel dx="1340" dy="1214" grid="1" gridSize="10" guides="1" tooltips="1" connect="1" arrows="1" fold="1" page="1" pageScale="1" pageWidth="827" pageHeight="1169" math="0" shadow="0">
            <root>
                <mxCell id="0"/>
                <mxCell id="1" parent="0"/>
                <mxCell id="3" style="edgeStyle=none;html=1;entryX=0;entryY=0.5;entryDx=0;entryDy=0;" edge="1" parent="1" source="2" target="4">
                    <mxGeometry relative="1" as="geometry">
                        <mxPoint x="580" y="430" as="targetPoint"/>
                    </mxGeometry>
                </mxCell>
                <mxCell id="5" style="edgeStyle=none;html=1;entryX=0.5;entryY=0;entryDx=0;entryDy=0;" edge="1" parent="1" source="2" target="18">
                    <mxGeometry relative="1" as="geometry">
                        <mxPoint x="414" y="470" as="targetPoint"/>
                    </mxGeometry>
                </mxCell>
                <mxCell id="2" value="hackerMode != 1" style="rhombus;labelBorderColor=none;labelBackgroundColor=default;" vertex="1" parent="1">
                    <mxGeometry x="354" y="310" width="120" height="120" as="geometry"/>
                </mxCell>
                <mxCell id="4" value="" style="ellipse;html=1;shape=endState;fillColor=#000000;strokeColor=#000000;labelBackgroundColor=default;labelBorderColor=none;" vertex="1" parent="1">
                    <mxGeometry x="570" y="355" width="30" height="30" as="geometry"/>
                </mxCell>
                <mxCell id="6" style="edgeStyle=none;html=1;entryX=0;entryY=0.5;entryDx=0;entryDy=0;" edge="1" parent="1" source="8" target="9">
                    <mxGeometry relative="1" as="geometry">
                        <mxPoint x="580" y="200" as="targetPoint"/>
                    </mxGeometry>
                </mxCell>
                <mxCell id="7" style="edgeStyle=none;html=1;entryX=0.5;entryY=0;entryDx=0;entryDy=0;" edge="1" parent="1" source="8" target="2">
                    <mxGeometry relative="1" as="geometry">
                        <mxPoint x="414" y="310" as="targetPoint"/>
                    </mxGeometry>
                </mxCell>
                <mxCell id="8" value="hackerMode != 1 &amp;&amp;&#10;e.key = &quot;h&quot; &amp;&amp;&#10;activeElement != seachBar" style="rhombus;labelBorderColor=none;labelBackgroundColor=default;" vertex="1" parent="1">
                    <mxGeometry x="354" y="140" width="120" height="120" as="geometry"/>
                </mxCell>
                <mxCell id="9" value="" style="ellipse;html=1;shape=endState;fillColor=#000000;strokeColor=#000000;labelBackgroundColor=default;labelBorderColor=none;" vertex="1" parent="1">
                    <mxGeometry x="570" y="185" width="30" height="30" as="geometry"/>
                </mxCell>
                <mxCell id="11" style="edgeStyle=none;html=1;entryX=0.5;entryY=0;entryDx=0;entryDy=0;" edge="1" parent="1" source="10" target="8">
                    <mxGeometry relative="1" as="geometry"/>
                </mxCell>
                <mxCell id="10" value="keyDown" style="html=1;shape=mxgraph.infographic.ribbonSimple;notch1=20;notch2=0;align=center;verticalAlign=middle;fontSize=14;fontStyle=0;flipH=1;labelBackgroundColor=default;labelBorderColor=none;" vertex="1" parent="1">
                    <mxGeometry x="334" y="20" width="160" height="40" as="geometry"/>
                </mxCell>
                <mxCell id="12" value="[else]" style="text;html=1;align=center;verticalAlign=middle;resizable=0;points=[];autosize=1;strokeColor=none;fillColor=none;" vertex="1" parent="1">
                    <mxGeometry x="495" y="180" width="40" height="20" as="geometry"/>
                </mxCell>
                <mxCell id="13" value="[else]" style="text;html=1;align=center;verticalAlign=middle;resizable=0;points=[];autosize=1;strokeColor=none;fillColor=none;" vertex="1" parent="1">
                    <mxGeometry x="495" y="350" width="40" height="20" as="geometry"/>
                </mxCell>
                <mxCell id="14" value="[true]" style="text;html=1;align=center;verticalAlign=middle;resizable=0;points=[];autosize=1;strokeColor=none;fillColor=none;" vertex="1" parent="1">
                    <mxGeometry x="420" y="260" width="40" height="20" as="geometry"/>
                </mxCell>
                <mxCell id="16" value="[true]" style="text;html=1;align=center;verticalAlign=middle;resizable=0;points=[];autosize=1;strokeColor=none;fillColor=none;" vertex="1" parent="1">
                    <mxGeometry x="420" y="430" width="40" height="20" as="geometry"/>
                </mxCell>
                <mxCell id="21" style="edgeStyle=none;html=1;entryX=-0.157;entryY=0.526;entryDx=0;entryDy=0;entryPerimeter=0;" edge="1" parent="1" source="18" target="29">
                    <mxGeometry relative="1" as="geometry">
                        <mxPoint x="414" y="560" as="targetPoint"/>
                    </mxGeometry>
                </mxCell>
                <mxCell id="18" value="hackerMode = 1" style="rounded=1;whiteSpace=wrap;html=1;labelBackgroundColor=default;labelBorderColor=none;" vertex="1" parent="1">
                    <mxGeometry x="354" y="490" width="120" height="30" as="geometry"/>
                </mxCell>
                <mxCell id="24" style="edgeStyle=none;html=1;entryX=0;entryY=0.25;entryDx=0;entryDy=0;exitX=1;exitY=0.25;exitDx=0;exitDy=0;" edge="1" parent="1" source="20" target="22">
                    <mxGeometry relative="1" as="geometry"/>
                </mxCell>
                <mxCell id="28" style="edgeStyle=none;html=1;entryX=0;entryY=0.5;entryDx=0;entryDy=0;" edge="1" parent="1" source="20" target="27">
                    <mxGeometry relative="1" as="geometry">
                        <Array as="points">
                            <mxPoint x="414" y="680"/>
                            <mxPoint x="414" y="695"/>
                        </Array>
                    </mxGeometry>
                </mxCell>
                <mxCell id="20" value="insertHackerIntoArr" style="rounded=1;whiteSpace=wrap;html=1;labelBackgroundColor=default;labelBorderColor=none;" vertex="1" parent="1">
                    <mxGeometry x="354" y="610" width="120" height="30" as="geometry"/>
                </mxCell>
                <mxCell id="25" style="edgeStyle=none;html=1;exitX=0;exitY=0.75;exitDx=0;exitDy=0;entryX=1;entryY=0.75;entryDx=0;entryDy=0;" edge="1" parent="1" source="22" target="20">
                    <mxGeometry relative="1" as="geometry"/>
                </mxCell>
                <mxCell id="26" value="hacker.obj" style="edgeLabel;html=1;align=center;verticalAlign=middle;resizable=0;points=[];" vertex="1" connectable="0" parent="25">
                    <mxGeometry x="0.2259" y="-1" relative="1" as="geometry">
                        <mxPoint x="18" as="offset"/>
                    </mxGeometry>
                </mxCell>
                <mxCell id="22" value="createHackerObj" style="rounded=1;whiteSpace=wrap;html=1;labelBackgroundColor=default;labelBorderColor=none;" vertex="1" parent="1">
                    <mxGeometry x="590" y="610" width="120" height="30" as="geometry"/>
                </mxCell>
                <mxCell id="27" value="showStudents" style="rounded=1;whiteSpace=wrap;html=1;labelBackgroundColor=default;labelBorderColor=none;" vertex="1" parent="1">
                    <mxGeometry x="590" y="680" width="120" height="30" as="geometry"/>
                </mxCell>
                <mxCell id="30" style="edgeStyle=none;html=1;entryX=0.5;entryY=0;entryDx=0;entryDy=0;" edge="1" parent="1" source="29" target="20">
                    <mxGeometry relative="1" as="geometry"/>
                </mxCell>
                <mxCell id="31" style="edgeStyle=none;html=1;entryX=0.5;entryY=0;entryDx=0;entryDy=0;" edge="1" parent="1" source="29" target="32">
                    <mxGeometry relative="1" as="geometry">
                        <mxPoint x="240" y="600" as="targetPoint"/>
                        <Array as="points">
                            <mxPoint x="390" y="590"/>
                            <mxPoint x="240" y="590"/>
                        </Array>
                    </mxGeometry>
                </mxCell>
                <mxCell id="29" value="" style="html=1;points=[];perimeter=orthogonalPerimeter;fillColor=#000000;strokeColor=none;labelBackgroundColor=default;labelBorderColor=none;rotation=90;" vertex="1" parent="1">
                    <mxGeometry x="414" y="530" width="5" height="80" as="geometry"/>
                </mxCell>
                <mxCell id="35" style="edgeStyle=none;html=1;entryX=0.5;entryY=0;entryDx=0;entryDy=0;" edge="1" parent="1" source="32" target="34">
                    <mxGeometry relative="1" as="geometry"/>
                </mxCell>
                <mxCell id="32" value="hackBloodStatus" style="rounded=1;whiteSpace=wrap;html=1;labelBackgroundColor=default;labelBorderColor=none;" vertex="1" parent="1">
                    <mxGeometry x="180" y="610" width="120" height="30" as="geometry"/>
                </mxCell>
                <mxCell id="36" style="edgeStyle=none;html=1;entryX=0.5;entryY=0;entryDx=0;entryDy=0;" edge="1" parent="1" source="34" target="38">
                    <mxGeometry relative="1" as="geometry">
                        <mxPoint x="250" y="820" as="targetPoint"/>
                    </mxGeometry>
                </mxCell>
                <mxCell id="37" style="edgeStyle=none;html=1;entryX=0;entryY=0.5;entryDx=0;entryDy=0;" edge="1" parent="1" source="34" target="39">
                    <mxGeometry relative="1" as="geometry">
                        <mxPoint x="100" y="750" as="targetPoint"/>
                        <Array as="points">
                            <mxPoint x="380" y="720"/>
                            <mxPoint x="380" y="758"/>
                        </Array>
                    </mxGeometry>
                </mxCell>
                <mxCell id="34" value="hackerMode = 1 &amp;&amp;&#10;student.bloodStatus == &quot;Pure-blood&quot; &amp;&amp; &#10;student.firstName !== hacker.firstName" style="rhombus;labelBorderColor=none;labelBackgroundColor=default;" vertex="1" parent="1">
                    <mxGeometry x="180" y="660" width="120" height="120" as="geometry"/>
                </mxCell>
                <mxCell id="55" style="edgeStyle=none;html=1;entryX=0;entryY=0.5;entryDx=0;entryDy=0;" edge="1" parent="1" source="38" target="54">
                    <mxGeometry relative="1" as="geometry"/>
                </mxCell>
                <mxCell id="57" style="edgeStyle=none;html=1;entryX=0.511;entryY=-0.078;entryDx=0;entryDy=0;entryPerimeter=0;" edge="1" parent="1" source="38" target="59">
                    <mxGeometry relative="1" as="geometry">
                        <mxPoint x="240" y="1000" as="targetPoint"/>
                    </mxGeometry>
                </mxCell>
                <mxCell id="38" value="hackerMode = 1 &amp;&amp;&#10;student.bloodStatus !== &quot;Pure-blood&quot;" style="rhombus;labelBorderColor=none;labelBackgroundColor=default;" vertex="1" parent="1">
                    <mxGeometry x="180" y="840" width="120" height="120" as="geometry"/>
                </mxCell>
                <mxCell id="41" style="edgeStyle=none;html=1;entryX=0.5;entryY=0;entryDx=0;entryDy=0;" edge="1" parent="1" source="39" target="44">
                    <mxGeometry relative="1" as="geometry">
                        <mxPoint x="-110" y="720" as="targetPoint"/>
                    </mxGeometry>
                </mxCell>
                <mxCell id="43" value="randNum" style="edgeLabel;html=1;align=center;verticalAlign=middle;resizable=0;points=[];" vertex="1" connectable="0" parent="41">
                    <mxGeometry x="-0.3659" relative="1" as="geometry">
                        <mxPoint y="4" as="offset"/>
                    </mxGeometry>
                </mxCell>
                <mxCell id="39" value="randomize number from 1 to 2" style="rounded=1;whiteSpace=wrap;html=1;labelBackgroundColor=default;labelBorderColor=none;" vertex="1" parent="1">
                    <mxGeometry x="590" y="735" width="120" height="45" as="geometry"/>
                </mxCell>
                <mxCell id="46" style="edgeStyle=none;html=1;entryX=1;entryY=0.5;entryDx=0;entryDy=0;" edge="1" parent="1" source="44" target="49">
                    <mxGeometry relative="1" as="geometry">
                        <mxPoint x="-270" y="720" as="targetPoint"/>
                        <Array as="points">
                            <mxPoint x="560" y="880"/>
                            <mxPoint x="560" y="833"/>
                        </Array>
                    </mxGeometry>
                </mxCell>
                <mxCell id="47" style="edgeStyle=none;html=1;entryX=0.5;entryY=0;entryDx=0;entryDy=0;" edge="1" parent="1" source="44" target="48">
                    <mxGeometry relative="1" as="geometry">
                        <mxPoint x="-190" y="830" as="targetPoint"/>
                    </mxGeometry>
                </mxCell>
                <mxCell id="44" value="randNum == 1" style="rhombus;labelBorderColor=none;labelBackgroundColor=default;" vertex="1" parent="1">
                    <mxGeometry x="590" y="820" width="120" height="120" as="geometry"/>
                </mxCell>
                <mxCell id="48" value="student.bloodStatus&lt;br&gt;= muggle" style="rounded=1;whiteSpace=wrap;html=1;labelBackgroundColor=default;labelBorderColor=none;" vertex="1" parent="1">
                    <mxGeometry x="590" y="1002.5" width="120" height="45" as="geometry"/>
                </mxCell>
                <mxCell id="49" value="student.bloodStatus&lt;br&gt;= half-blood" style="rounded=1;whiteSpace=wrap;html=1;labelBackgroundColor=default;labelBorderColor=none;" vertex="1" parent="1">
                    <mxGeometry x="390" y="810" width="120" height="45" as="geometry"/>
                </mxCell>
                <mxCell id="50" value="[true]" style="text;html=1;align=center;verticalAlign=middle;resizable=0;points=[];autosize=1;strokeColor=none;fillColor=none;" vertex="1" parent="1">
                    <mxGeometry x="560" y="855" width="40" height="20" as="geometry"/>
                </mxCell>
                <mxCell id="51" value="[else]" style="text;html=1;align=center;verticalAlign=middle;resizable=0;points=[];autosize=1;strokeColor=none;fillColor=none;" vertex="1" parent="1">
                    <mxGeometry x="650" y="940" width="40" height="20" as="geometry"/>
                </mxCell>
                <mxCell id="52" value="[true]" style="text;html=1;align=center;verticalAlign=middle;resizable=0;points=[];autosize=1;strokeColor=none;fillColor=none;" vertex="1" parent="1">
                    <mxGeometry x="350" y="700" width="40" height="20" as="geometry"/>
                </mxCell>
                <mxCell id="53" value="[else]" style="text;html=1;align=center;verticalAlign=middle;resizable=0;points=[];autosize=1;strokeColor=none;fillColor=none;" vertex="1" parent="1">
                    <mxGeometry x="240" y="780" width="40" height="20" as="geometry"/>
                </mxCell>
                <mxCell id="54" value="student.bloodStatus&lt;br&gt;= pure-blood" style="rounded=1;whiteSpace=wrap;html=1;labelBackgroundColor=default;labelBorderColor=none;" vertex="1" parent="1">
                    <mxGeometry x="390" y="877.5" width="120" height="45" as="geometry"/>
                </mxCell>
                <mxCell id="56" value="[true]" style="text;html=1;align=center;verticalAlign=middle;resizable=0;points=[];autosize=1;strokeColor=none;fillColor=none;" vertex="1" parent="1">
                    <mxGeometry x="340" y="880" width="40" height="20" as="geometry"/>
                </mxCell>
                <mxCell id="59" value="" style="ellipse;html=1;shape=endState;fillColor=#000000;strokeColor=#000000;labelBackgroundColor=default;labelBorderColor=none;" vertex="1" parent="1">
                    <mxGeometry x="225" y="1010" width="30" height="30" as="geometry"/>
                </mxCell>
            </root>
        </mxGraphModel>
    </diagram>
</mxfile>